<svg xmlns="http://www.w3.org/2000/svg" version="1.0" width="100%" height="100%" viewBox="0 0 784.000000 903.000000" preserveAspectRatio="xMidYMid meet">
    <g transform="translate(0.000000,903.000000) scale(0.100000,-0.100000)" fill="#242424" stroke="none">
        <path d="M1667 8973 c-2 -10 -374 -1170 -827 -2578 -452 -1408 -823 -2564 -824 -2569 0 -5 536 -288 1193 -630 l1194 -621 754 -1275 c414 -701 757 -1276 761 -1277 4 -1 346 573 761 1275 l754 1277 1193 620 c657 341 1194 624 1194 628 0 15 -1652 5152 -1659 5160 -4 4 -389 -391 -855 -878 l-847 -885 -542 0 -542 0 -845 885 c-465 487 -848 885 -851 885 -4 0 -9 -8 -12 -17z m813 -3306 c432 -313 786 -570 787 -571 2 -1 -85 -507 -89 -516 -2 -4 -403 159 -893 361 -490 203 -894 370 -899 372 -8 3 69 257 230 765 39 121 59 170 67 165 7 -4 365 -263 797 -576z m3833 117 c81 -257 147 -468 145 -469 -15 -13 -1785 -735 -1793 -731 -11 4 -100 504 -91 513 10 11 1581 1151 1586 1152 3 1 72 -209 153 -465z"/>
    </g>
</svg>